<?xml version="1.0" encoding="utf-8"?>
<svg version="1.1" id="Camada_1" xmlns="http://www.w3.org/2000/svg" xmlns:xlink="http://www.w3.org/1999/xlink" x="0px" y="0px"
	 viewBox="0 0 480 480" enable-background="new 0 0 480 480" xml:space="preserve">
<g>
	<path fill="#FF7F50" d="M373.68,245.08c-10.23,8.24-21.42,16.48-33.48,24.56c-5.43,3.64-11.04,7.26-16.81,10.83
		c-12.34,7.64-25.41,15.09-39.12,22.23c-13.71,7.14-27.4,13.61-40.9,19.42c-6.32,2.72-12.6,5.29-18.82,7.71
		c-14.06,5.47-27.82,10.19-41.08,14.1c-3.05,0.9-6.05,1.74-9.04,2.55c0,0,0-0.01,0-0.01l-15.39,3.87l-0.02,0
		c0,0.01,0,0.01,0.01,0.02c-22.02,5.08-42.09,7.67-58.97,7.65c-13.53,0.01-24.97-1.66-33.66-4.74c-8.72-3.1-14.56-7.39-18.1-12.9
		c-2.59-4.06-3.89-8.68-3.9-14.18c-0.01-4.08,0.77-8.63,2.33-13.56c2.81,0.74,5.75,1.14,8.79,1.14c18.97,0,34.35-15.38,34.35-34.35
		s-15.38-34.35-34.35-34.35s-34.35,15.38-34.35,34.35c0,10.18,4.43,19.32,11.46,25.61c-2.7,7.27-4.19,14.34-4.21,21.16
		c-0.01,7.61,1.91,14.94,6.04,21.39c5.65,8.86,14.92,15.19,26.12,19.12c11.24,3.95,24.54,5.72,39.49,5.73
		c18.65-0.01,39.93-2.79,62.96-8.11c2.84,9.14,5.98,17.78,9.41,25.81c8.38,19.6,18.39,35.72,30.09,47.34
		c5.86,5.8,12.17,10.48,19.01,13.77c6.83,3.28,14.23,5.12,21.85,5.12h0.05c7.6,0,14.99-1.84,21.8-5.12
		c11.97-5.77,22.33-15.71,31.46-28.68c10.78-15.37,19.89-35.15,27.05-58.23c1.4-4.53,2.73-9.18,3.99-13.95
		c0.46-1.75,0.91-3.52,1.35-5.3c3.27-13.32,5.93-27.51,7.92-42.38c-4.95,3.04-11.07,6.51-17.53,9.5
		c-1.94,12.02-4.34,23.5-7.14,34.29c-1.25,4.8-2.58,9.45-3.98,13.97c-2.71,8.74-5.7,16.94-8.93,24.5
		c-7.86,18.46-17.21,33.14-26.99,42.81c-4.89,4.84-9.85,8.42-14.7,10.74c-4.86,2.32-9.56,3.42-14.35,3.43
		c-4.79-0.01-9.48-1.11-14.35-3.43c-8.49-4.04-17.32-12.05-25.46-23.67c-9.66-13.72-18.31-32.31-25.16-54.39
		c3.32-0.9,6.66-1.83,10.03-2.83c17.68-5.21,36.13-11.77,54.94-19.59c6.24-2.59,12.52-5.33,18.82-8.2
		c9.98-4.55,20.02-9.43,30.07-14.66h0c10.04-5.23,19.75-10.62,29.09-16.13c0.01-0.03,0.02-0.04,0.02-0.04l17.29-10.59l0.04,0.01
		c16.85-10.73,32.29-21.82,46.1-32.98C381.94,252.01,378.25,248.51,373.68,245.08z"/>
	<path fill="#FF7F50" d="M82.66,238.82c3.64,3.36,7.45,6.72,11.4,10.09c1.76,1.5,3.55,2.99,5.37,4.49
		c10.9,8.94,22.87,17.85,35.77,26.58c-0.44-5.39-0.72-11.9-0.37-18.44c-10.57-7.52-20.39-15.13-29.35-22.72
		c-3.98-3.37-7.79-6.73-11.42-10.09c-2.38-2.19-4.69-4.38-6.92-6.56c-13.89-13.59-24.72-26.84-31.96-38.95
		c-7.27-12.11-10.83-23.03-10.81-31.78c0.01-5.51,1.32-10.13,3.9-14.18c3.54-5.51,9.38-9.8,18.1-12.91
		c8.69-3.08,20.13-4.75,33.66-4.74c16.88-0.01,36.95,2.57,58.97,7.65c-0.46,1.75-0.91,3.52-1.35,5.3
		c-4.3,17.52-7.56,36.54-9.6,56.64c-0.63,6.16-1.13,12.44-1.53,18.79c-0.62,10.07-0.96,20.35-0.96,30.82
		c0,10.46,0.33,20.73,0.95,30.79c0,0,0.01,0.01,0.01,0.01l1.53,18.79l-0.02,0.02c0,0,0.01,0,0.01,0.01
		c1.88,18.52,4.8,36.12,8.62,52.49c4.72-0.52,9.93-1.65,15.51-3.51c-2.8-12.1-5.1-24.95-6.84-38.39c-0.78-6.07-1.45-12.25-2-18.55
		c-1.17-13.45-1.79-27.38-1.79-41.65c0-14.27,0.61-28.2,1.78-41.65c0.55-6.3,1.22-12.49,2.01-18.56
		c2.18-16.86,5.25-32.79,9.06-47.46l3.98-13.97c2.71-8.74,5.7-16.94,8.93-24.5c7.86-18.46,17.21-33.14,26.99-42.81
		c4.88-4.84,9.85-8.42,14.7-10.74c4.86-2.32,9.56-3.42,14.35-3.43c4.79,0.01,9.48,1.11,14.35,3.43c4.26,2.03,8.61,5.07,12.92,9.06
		c-5.32,6.05-8.55,13.98-8.55,22.67c0,18.97,15.38,34.35,34.35,34.35c18.21,0,33.11-14.18,34.27-32.09
		c0.01-0.11,0.02-0.22,0.03-0.33c0.02-0.35,0.03-0.7,0.03-1.05c0.01-0.22,0.02-0.44,0.02-0.67c0-0.03,0-0.06,0-0.1
		c0-0.04,0-0.07,0-0.11c0-18.97-15.38-34.35-34.35-34.35c-4.7,0-9.18,0.95-13.26,2.66c-5.56-5.33-11.52-9.67-17.95-12.75
		c-6.83-3.28-14.23-5.12-21.85-5.12c-7.61-0.01-15.02,1.83-21.85,5.12c-11.97,5.77-22.33,15.71-31.46,28.68
		c-10.78,15.37-19.89,35.15-27.05,58.23c-23.03-5.32-44.31-8.1-62.96-8.11c-14.95,0.01-28.25,1.78-39.49,5.73
		c-11.2,3.93-20.46,10.26-26.12,19.12c-4.14,6.44-6.06,13.77-6.05,21.39c0.03,12.17,4.67,25.12,12.72,38.62
		C50.52,205.72,64.64,222.21,82.66,238.82z"/>
	<path fill="#FF7F50" d="M404.09,238.82c2.49-2.3,4.92-4.6,7.26-6.89c14.58-14.28,26.18-28.37,34.27-41.87
		c8.05-13.5,12.69-26.45,12.72-38.62c0.01-7.61-1.91-14.94-6.04-21.39c-5.66-8.86-14.92-15.19-26.12-19.12
		c-11.24-3.95-24.54-5.72-39.49-5.73c-18.65,0.01-39.93,2.79-62.96,8.11c-5.05,1.17-10.18,2.46-15.38,3.86
		c-3.32,0.9-6.66,1.83-10.04,2.83c-13.09,3.86-26.6,8.46-40.36,13.76c5.4,2.35,11.78,5.39,17.88,8.93c9.33-3.35,18.51-6.36,27.45-9
		c3.05-0.9,6.05-1.74,9.04-2.56c5.23-1.42,10.37-2.72,15.4-3.88c21.99-5.07,42.03-7.65,58.89-7.65h0.08
		c13.53-0.01,24.97,1.66,33.66,4.74c8.72,3.1,14.56,7.39,18.11,12.91c2.58,4.05,3.89,8.68,3.9,14.18
		c0.03,8.74-3.54,19.67-10.8,31.78c-8.39,14.06-21.64,29.62-38.87,45.51c-1.76-1.5-3.55-3-5.38-4.49
		c-14.44-11.85-30.76-23.64-48.64-35.03c-5.61-3.57-11.38-7.11-17.29-10.59c-9.36-5.52-19.07-10.92-29.12-16.16v0
		c-10.05-5.23-20.09-10.11-30.07-14.66l-18.82-8.2c-18.74-7.79-37.11-14.33-54.74-19.53c-1.86,3.95-3.38,8.59-4.39,13.87
		c13.02,3.86,26.52,8.5,40.31,13.86c6.22,2.42,12.5,4.99,18.82,7.71c13.5,5.81,27.19,12.29,40.9,19.42
		c13.71,7.13,26.78,14.58,39.11,22.22c5.77,3.58,11.38,7.19,16.81,10.84c15.09,10.12,28.84,20.47,41.01,30.77l0.04,0.01l11.42,10.09
		l0.01,0.03c0,0,0,0,0,0c2.38,2.19,4.69,4.38,6.91,6.56c13.89,13.59,24.72,26.84,31.96,38.95c7.26,12.11,10.83,23.03,10.8,31.78
		c-0.01,5.51-1.32,10.13-3.9,14.18c-3.54,5.51-9.38,9.8-18.11,12.9c-2.83,1-5.97,1.84-9.36,2.54c-3.9-14.69-17.28-25.51-33.2-25.51
		c-18.97,0-34.35,15.38-34.35,34.35c0,18.97,15.38,34.35,34.35,34.35c17.01,0,31.12-12.37,33.86-28.6
		c5.15-0.91,10.01-2.13,14.52-3.72c11.2-3.93,20.47-10.26,26.12-19.12c4.14-6.44,6.05-13.78,6.04-21.39
		c-0.03-12.17-4.67-25.12-12.72-38.62C436.23,271.92,422.11,255.43,404.09,238.82z"/>
	<path fill="#FF7F50" d="M188.17,239.5c0.01,0.38,0.01,0.77,0.03,1.15c0.97,29.65,25.29,53.39,55.18,53.39
		c29.97,0,54.35-23.88,55.18-53.65c0.01-0.33,0.02-0.66,0.02-0.98c0-0.2,0.01-0.39,0.01-0.59c0-0.23-0.01-0.46-0.02-0.69
		c-0.01-0.38-0.01-0.77-0.03-1.15c-0.97-29.65-25.29-53.39-55.18-53.39c-29.97,0-54.35,23.88-55.18,53.65
		c-0.01,0.33-0.02,0.65-0.02,0.98c0,0.2-0.01,0.39-0.01,0.59C188.15,239.05,188.17,239.28,188.17,239.5z"/>
</g>
</svg>
